<?xml version="1.0" encoding="UTF-8"?>
<svg width="275px" height="100px" viewBox="0 0 275 100" version="1.1" xmlns="http://www.w3.org/2000/svg" xmlns:xlink="http://www.w3.org/1999/xlink">
    <!-- Generator: Sketch 50.2 (55047) - http://www.bohemiancoding.com/sketch -->
    <title>School of Public Health_2016_Reverse HZ</title>
    <desc>Created with Sketch.</desc>
    <defs>
        <polygon id="path-1" points="0 0.0674285714 200.751604 0.0674285714 200.751604 58.9789286 0 58.9789286"></polygon>
        <polygon id="path-3" points="0.237612175 0.198125 14.7666279 0.198125 14.7666279 4.6884375 0.237612175 4.6884375"></polygon>
    </defs>
    <g id="Pages" stroke="none" stroke-width="1" fill="none" fill-rule="evenodd">
        <g id="SPH-Header-Mockup-Home-Link-2" transform="translate(-65.000000, -55.000000)">
            <g id="School-of-Public-Health_2016_Reverse-HZ" transform="translate(65.000000, 55.000000)">
                <path d="M70.5614091,82.7867096 C70.9204829,83.8234017 72.0650307,86.2721098 74.4438947,86.2721098 C76.1494953,86.2721098 77.2267168,85.1468385 77.2267168,83.4263707 C77.2267168,81.551502 75.7679794,80.7794972 74.3316841,80.0957216 C73.5910944,79.7428051 70.5614091,78.706113 70.5614091,76.0588894 C70.5614091,73.8752188 72.2445676,72 75.1844845,72 C75.8128636,72 76.5758955,72.1323437 77.0475361,72.2870947 C77.3389274,72.3753239 77.6534732,72.4852601 77.9003364,72.5293747 C77.9901049,73.3017296 78.1247576,74.1840207 78.3042945,75.5074575 L77.7432416,75.5739794 C77.3613695,74.2722498 76.7333465,72.7282403 74.690758,72.7282403 C73.0973679,72.7282403 72.2670097,73.8752188 72.2670097,75.1765983 C72.2670097,76.809187 73.4564417,77.5370772 75.1620424,78.2870247 C76.6435781,78.9266858 79,79.8310342 79,82.5661368 C79,85.1251313 76.8679992,87 74.0174946,87 C73.2095785,87 72.4465466,86.845599 71.8854938,86.6691408 C71.3244409,86.4926826 70.9204829,86.3162244 70.6508213,86.205938 C70.4716406,85.6324487 70.2247774,84.0660318 70,82.8749387 L70.5614091,82.7867096" id="Fill-1" fill="#FFFFFE"></path>
                <path d="M88,84.6420848 C87.1084275,85.9953563 85.7389804,87 84.4999569,87 C81.7393255,87 80,84.7949127 80,82.3929859 C80,80.7555448 80.7825412,79.2927641 81.9784353,78.3102994 C83.2826706,77.2405046 84.7825412,77 85.5216079,77 C86.0215647,77 86.9562667,77.1968395 87.4344863,77.5898253 C87.5866471,77.7204741 87.6518589,77.8514694 87.6518589,78.0697948 C87.6518589,78.5504574 87.2174588,79.0307735 86.9345295,79.0307735 C86.8475804,79.0307735 86.7606314,79.0085944 86.6084706,78.8775991 C85.7607177,78.1134599 85.0433883,77.9387996 84.3477961,77.9387996 C83.2826706,77.9387996 81.7393255,78.8997782 81.7393255,81.4105212 C81.7393255,84.7075825 84.0652118,85.5808844 85.1303373,85.5808844 C86.0867765,85.5808844 86.5649961,85.3625589 87.7170706,84.3582617 L88,84.6420848" id="Fill-2" fill="#FFFFFE"></path>
                <path d="M92.3108988,78.526424 C93.0664059,77.7155504 94.2666816,76.9940982 95.4666047,76.9490298 C97.3775932,76.9039614 98.5334274,78.188411 98.5334274,80.1943128 L98.5334274,84.9719217 C98.5334274,86.2334794 98.6441787,86.3465081 100,86.4591791 L100,87 L95.2888383,87 L95.2888383,86.4817133 C96.6887485,86.3465081 96.7998525,86.2334794 96.7998525,84.9719217 L96.7998525,80.8703389 C96.7998525,79.2478762 96.2221118,78.188411 94.5999936,78.188411 C93.6889409,78.2334794 92.8667714,78.5714924 92.3108988,79.225342 L92.3108988,84.9719217 C92.3108988,86.2334794 92.4220028,86.3465081 93.7778241,86.4817133 L93.7778241,87 L89.0666624,87 L89.0666624,86.4817133 C90.4665726,86.3465081 90.5776766,86.2334794 90.5776766,84.9719217 L90.5776766,73.7266386 C90.5776766,72.3520522 90.533235,72.3742287 89,72.2390235 L89,71.7886971 C90.0443775,71.5855316 91.4665085,71.2249844 92.3108988,71 L92.3108988,78.526424" id="Fill-3" fill="#FFFFFE"></path>
                <path d="M108.927544,82.3274882 C108.927544,79.9040754 107.833827,77.6549764 105.761009,77.6549764 C104.234507,77.6549764 103.072818,79.1617688 103.072818,81.4541863 C103.072818,84.2272664 104.32562,86.3450236 106.307687,86.3450236 C107.719936,86.3450236 108.927544,85.2748822 108.927544,82.3274882 Z M101,82.2619906 C101,78.5941225 103.96153,77 106.034348,77 C108.927544,77 111,79.1181037 111,81.8475187 C111,85.2533962 108.358088,87 106.057126,87 C102.845397,87 101,84.5329221 101,82.2619906 Z" id="Fill-4" fill="#FFFFFE"></path>
                <path d="M119.927544,82.3274882 C119.927544,79.9040754 118.833827,77.6549764 116.761009,77.6549764 C115.234507,77.6549764 114.072818,79.1617688 114.072818,81.4541863 C114.072818,84.2272664 115.32562,86.3450236 117.307687,86.3450236 C118.719936,86.3450236 119.927544,85.2748822 119.927544,82.3274882 Z M112,82.2619906 C112,78.5941225 114.961169,77 117.034348,77 C119.927544,77 122,79.1181037 122,81.8475187 C122,85.2533962 119.358088,87 117.057126,87 C113.845036,87 112,84.5329221 112,82.2619906 Z" id="Fill-5" fill="#FFFFFE"></path>
                <path d="M123.629703,73.7041044 C123.629703,72.3742287 123.585063,72.3520522 122.04464,72.2390235 L122.04464,71.7886971 C123.115992,71.5855316 124.567137,71.2249844 125.370651,71 L125.370651,84.9719217 C125.370651,86.2334794 125.48225,86.3465081 127,86.4817133 L127,87 L122,87 L122,86.4817133 C123.51775,86.3465081 123.629703,86.2334794 123.629703,84.9719217 L123.629703,73.7041044" id="Fill-6" fill="#FFFFFE"></path>
                <path d="M141.927257,82.3274882 C141.927257,79.9040754 140.833942,77.6549764 138.760837,77.6549764 C137.234752,77.6549764 136.073105,79.1617688 136.073105,81.4541863 C136.073105,84.2272664 137.325861,86.3450236 139.307495,86.3450236 C140.719693,86.3450236 141.927257,85.2748822 141.927257,82.3274882 Z M134,82.2619906 C134,78.5941225 136.961423,77 139.034166,77 C141.927257,77 144,79.1181037 144,81.8475187 C144,85.2533962 141.357822,87 139.057305,87 C135.845331,87 134,84.5329221 134,82.2619906 Z" id="Fill-7" fill="#FFFFFE"></path>
                <path d="M148.387816,78.0760976 L148.387816,84.9719217 C148.387816,86.2113029 148.49888,86.3239739 150.358858,86.4817133 L150.358858,87 L145.199283,87 L145.199283,86.4817133 C146.550333,86.3239739 146.660694,86.2113029 146.660694,84.9719217 L146.660694,78.0760976 L145.08857,78.0760976 L145,77.8507556 L145.619992,77.2194402 L146.660694,77.2194402 L146.660694,76.8814272 C146.660694,75.9575248 146.749264,75.2589645 146.88212,74.8533488 C147.03747,74.4026648 147.347466,73.2308862 148.543166,72.1939551 C149.406726,71.4732183 150.20386,71.1123133 151.178134,71 C151.775983,71.0447107 152.440613,71.3830815 152.839179,71.8337655 C153.060254,72.0816418 153.015968,72.2619154 152.927398,72.4643656 C152.86097,72.6449969 152.662038,72.8703389 152.506689,73.0277206 C152.240978,73.2530627 152.063837,73.2308862 151.864554,73.0506125 C151.377417,72.5773943 150.713139,72.1267102 149.982434,72.1267102 C149.650295,72.1267102 149.295662,72.3291603 149.00816,72.7351337 C148.698164,73.1407494 148.366025,74.3575964 148.387816,76.2733614 L148.387816,77.2194402 L151.133848,77.2194402 C151.244561,77.4676741 151.155991,77.9408924 150.912422,78.0760976 L148.387816,78.0760976" id="Fill-8" fill="#FFFFFE"></path>
                <path d="M160.922004,80.1722993 C161.215027,80.3015237 161.846154,80.4307482 162.612522,80.4307482 C164.032558,80.4307482 165.881216,79.7200137 165.881216,76.9201504 C165.881216,74.571889 164.596064,73.6245849 162.274419,73.6245849 C161.620751,73.6245849 161.305188,73.6676597 161.124866,73.7319301 C160.989624,73.7750049 160.922004,73.8830338 160.922004,74.313782 L160.922004,80.1722993 Z M160.922004,83.8767337 C160.922004,86.2243114 161.102326,86.3754151 163.28873,86.5046396 L163.28873,87 L157,87 L157,86.5046396 C158.848301,86.3754151 159.028623,86.2243114 159.028623,83.8767337 L159.028623,76.1232663 C159.028623,73.7750049 158.848301,73.6245849 157.112343,73.4953604 L157.112343,73 L162.815742,73 C164.325581,73 165.610376,73.2369115 166.557424,73.9045712 C167.436494,74.5076187 168,75.4983395 168,76.8551963 C168,79.5046396 165.768515,80.9261086 163.604651,81.1845575 C163.243649,81.2276324 162.860823,81.2276324 162.589982,81.2276324 L160.922004,80.8184216 L160.922004,83.8767337 Z" id="Fill-9" fill="#FFFFFE"></path>
                <path d="M176.637406,79.0308339 C176.637406,78.2140855 176.414742,78.0374912 175.947145,77.9933427 L174.878707,77.860897 L174.878707,77.3973371 C175.902612,77.3531885 177.528419,77.1324457 178.374546,77 L178.374546,84.726349 C178.374546,85.6093203 178.552678,85.6755431 179.020274,85.6976174 L180,85.7417659 L180,86.2274001 C179.064807,86.3377715 177.439354,86.7792572 176.771005,87 L176.637406,86.8675543 L176.637406,85.2999299 C176.125277,85.6976174 175.524435,86.139103 174.945153,86.4702172 C174.299425,86.84548 173.742763,87 173.185747,87 C171.605179,87 170.402435,86.1832516 170.402435,83.9758234 L170.402435,79.0308339 C170.402435,78.2140855 170.202037,78.0374912 169.689908,77.970918 L169,77.860897 L169,77.3973371 C169.667641,77.3531885 171.293449,77.1324457 172.139575,77 L172.139575,83.2028732 C172.139575,85.2557814 173.096681,85.7417659 174.099026,85.7417659 C174.878707,85.7417659 175.72448,85.3885774 176.637406,84.6159776 L176.637406,79.0308339" id="Fill-10" fill="#FFFFFE"></path>
                <path d="M183.441745,84.495955 C183.441745,84.8283503 183.488255,85.0499472 183.581275,85.2490327 C183.721174,85.5374604 184.325436,86.2465705 185.581577,86.2908899 C187.81406,86.2908899 188.953557,84.5620823 188.953557,82.0358776 C188.953557,79.5539923 187.511745,77.9141752 185.116107,77.9141752 C184.418456,77.9141752 183.837081,78.0914527 183.441745,78.3130496 L183.441745,84.495955 Z M183.441745,77.7587056 L185.604463,76.9831164 C185.860638,76.8944777 186.139329,76.8501583 186.488523,76.8501583 C188.930302,76.8501583 191,78.9113612 191,81.3932466 C191,84.6510728 188.325671,87 185.209497,87 C183.907215,87 182.860369,86.7784031 181.627852,86.2022511 L181.627852,73.6591629 C181.627852,72.3513894 181.581342,72.3295814 180,72.2184312 L180,71.7755892 C181.046477,71.5758002 182.558054,71.2212452 183.441745,71 L183.441745,77.7587056 Z" id="Fill-11" fill="#FFFFFE"></path>
                <path d="M193.629349,73.7041044 C193.629349,72.3742287 193.584709,72.3520522 192.04464,72.2390235 L192.04464,71.7886971 C193.115992,71.5855316 194.567137,71.2249844 195.370297,71 L195.370297,84.9719217 C195.370297,86.2334794 195.48225,86.3465081 197,86.4817133 L197,87 L192,87 L192,86.4817133 C193.51775,86.3465081 193.629349,86.2334794 193.629349,84.9719217 L193.629349,73.7041044" id="Fill-12" fill="#FFFFFE"></path>
                <path d="M200.665613,73.2099421 C200.665613,73.86972 200.14493,74.3975424 199.488868,74.3975424 C198.855429,74.3975424 198.312482,73.86972 198.312482,73.2099421 C198.312482,72.5281715 198.855429,72 199.488868,72 C200.14493,72 200.665613,72.5281715 200.665613,73.2099421 Z M200.371158,85.0206661 C200.371158,86.2519025 200.484631,86.3622146 202,86.4941702 L202,87 L197,87 L197,86.4941702 C198.493824,86.3622146 198.606579,86.2519025 198.606579,85.0206661 L198.606579,79.9396774 C198.606579,78.6204706 198.561333,78.598478 197.068228,78.4225372 L197.068228,78.0266704 C198.108877,77.8063953 199.217394,77.5424841 200.371158,77.1466173 L200.371158,85.0206661 Z" id="Fill-13" fill="#FFFFFE"></path>
                <path d="M211,84.6420848 C210.108734,85.9953563 208.739228,87 207.500151,87 C204.739055,87 203,84.7949127 203,82.3929859 C203,80.7555448 203.782575,79.2927641 204.978176,78.3102994 C206.282467,77.2405046 207.782747,77 208.521846,77 C209.021824,77 209.956567,77.1968395 210.434807,77.5898253 C210.586974,77.7204741 210.652189,77.8514694 210.652189,78.0697948 C210.652189,78.5504574 210.217425,79.0307735 209.934829,79.0307735 C209.847876,79.0307735 209.760578,79.0085944 209.608756,78.8775991 C208.760966,78.1134599 208.043606,77.9387996 207.347639,77.9387996 C206.282467,77.9387996 204.739055,78.8997782 204.739055,81.4105212 C204.739055,84.7075825 207.065387,85.5808844 208.130559,85.5808844 C209.086694,85.5808844 209.565279,85.3625589 210.717403,84.3582617 L211,84.6420848" id="Fill-14" fill="#FFFFFE"></path>
                <path d="M228.233868,79.1815784 L228.233868,76.1232663 C228.233868,73.7750049 228.062695,73.6245849 226.350971,73.4953604 L226.350971,73 L232,73 L232,73.4953604 C230.20269,73.6245849 230.031517,73.7750049 230.031517,76.1232663 L230.031517,83.8767337 C230.031517,86.2243114 230.20269,86.3754151 231.957207,86.5046396 L231.957207,87 L226.179799,87 L226.179799,86.5046396 C228.062695,86.3754151 228.233868,86.2243114 228.233868,83.8767337 L228.233868,80.042733 L220.808925,80.042733 L220.808925,83.8767337 C220.808925,86.2243114 220.980098,86.3754151 222.734954,86.5046396 L222.734954,87 L217.085926,87 L217.085926,86.5046396 C218.840443,86.3754151 219.011615,86.2243114 219.011615,83.8767337 L219.011615,76.1232663 C219.011615,73.7750049 218.840443,73.6245849 217,73.4953604 L217,73 L222.649368,73 L222.649368,73.4953604 C220.980098,73.6245849 220.808925,73.7750049 220.808925,76.1232663 L220.808925,79.1815784 L228.233868,79.1815784" id="Fill-15" fill="#FFFFFE"></path>
                <path d="M239.691979,80.3622124 C240.005335,80.3622124 240.094967,80.2533962 240.094967,79.6639174 C240.094967,78.7902689 239.378268,77.7426532 238.212698,77.7426532 C237.137115,77.7426532 235.971901,78.812448 235.792637,80.4280566 L239.691979,80.3622124 Z M241.932776,84.8604103 C240.700338,86.563349 239.154188,87 238.549173,87 C235.703006,87 234,84.9255614 234,82.3929859 C234,79.4670779 236.106705,77 238.795305,77 C240.543482,77 242,78.5719434 242,80.0350707 C242,80.7118797 241.932776,80.7555448 241.529433,80.842875 C241.215721,80.9083726 238.436778,81.1266981 235.65819,81.2140283 C235.590966,84.4670779 237.697315,85.6027169 239.310688,85.6027169 C240.050151,85.6027169 240.722746,85.3407264 241.619065,84.5544081 L241.932776,84.8604103 Z" id="Fill-16" fill="#FFFFFE"></path>
                <path d="M247.824556,81.4541863 C247.376414,81.6506792 246.155412,82.240158 245.768336,82.4584835 C245.055897,82.8736485 244.709855,83.3099529 244.709855,84.0962711 C244.709855,85.2533962 245.442649,85.7992099 246.053312,85.7992099 C246.521809,85.7992099 247.27496,85.406224 247.824556,84.9477405 L247.824556,81.4541863 Z M248.944103,87 C248.252019,86.8690047 247.946688,86.1266981 247.824556,85.5808844 C246.969305,86.1703632 245.870113,87 245.442649,87 C243.956704,87 243,85.6900471 243,84.489257 C243,83.4846133 243.48853,82.7426532 244.547011,82.2838231 C245.544426,81.8475187 247.21357,81.2140283 247.824556,80.7555448 L247.824556,80.0132381 C247.824556,78.6592736 247.234249,77.9387996 246.155412,77.9387996 C245.157674,77.9387996 244.73021,78.8561131 244.5063,79.7730801 C244.445234,80.0350707 244.262036,80.1878985 244.038126,80.1878985 C243.712439,80.1878985 243.162843,79.8385778 243.162843,79.4455919 C243.162843,79.1617688 243.407108,78.8561131 243.854927,78.5067923 C244.343457,78.1134599 245.544426,77.2841697 246.989984,77 C247.559612,77 248.190953,77.1968395 248.597738,77.5239811 C249.269467,78.0919739 249.371567,78.8561131 249.371567,79.6417383 L249.371567,84.5544081 C249.371567,85.3625589 249.636187,85.7337122 249.941519,85.7337122 C250.104362,85.7337122 250.450404,85.646382 250.816801,85.4498891 L251,85.9302052 L248.944103,87 Z" id="Fill-17" fill="#FFFFFE"></path>
                <path d="M253.629703,73.7041044 C253.629703,72.3742287 253.585063,72.3520522 252.04464,72.2390235 L252.04464,71.7886971 C253.116347,71.5855316 254.567137,71.2249844 255.370651,71 L255.370651,84.9719217 C255.370651,86.2334794 255.48225,86.3465081 257,86.4817133 L257,87 L252,87 L252,86.4817133 C253.51775,86.3465081 253.629703,86.2334794 253.629703,84.9719217 L253.629703,73.7041044" id="Fill-18" fill="#FFFFFE"></path>
                <path d="M261.229141,83.7445276 C261.229141,85.5079085 261.99989,85.8240539 262.562328,85.8240539 C262.937286,85.8240539 263.3959,85.6435532 263.79169,85.3948712 L264,85.8922351 L262.291524,86.8191404 C262.083214,86.9321777 261.81241,87 261.666593,87 C260.333407,87 259.604321,86.0730947 259.604321,84.2644989 L259.604321,77.7758026 L258.083324,77.7758026 L258,77.5497281 L258.6041,76.9163607 L259.604321,76.9163607 L259.604321,75.4920915 L260.958007,74 L261.229141,74 L261.229141,76.9163607 L263.645542,76.9163607 C263.81219,77.1654015 263.750028,77.5267618 263.499724,77.7758026 L261.229141,77.7758026 L261.229141,83.7445276" id="Fill-19" fill="#FFFFFE"></path>
                <path d="M267.311251,78.526424 C268.066759,77.7155504 269.266682,76.9940982 270.466605,76.9490298 C272.377593,76.9039614 273.533427,78.188411 273.533427,80.1943128 L273.533427,84.9719217 C273.533427,86.2334794 273.644531,86.3465081 275,86.4591791 L275,87 L270.288838,87 L270.288838,86.4817133 C271.688749,86.3465081 271.800205,86.2334794 271.800205,84.9719217 L271.800205,80.8703389 C271.800205,79.2478762 271.222112,78.188411 269.599994,78.188411 C268.688941,78.2334794 267.866771,78.5714924 267.311251,79.225342 L267.311251,84.9719217 C267.311251,86.2334794 267.422355,86.3465081 268.777824,86.4817133 L268.777824,87 L264.066662,87 L264.066662,86.4817133 C265.466925,86.3465081 265.577677,86.2334794 265.577677,84.9719217 L265.577677,73.7266386 C265.577677,72.3520522 265.533235,72.3742287 264,72.2390235 L264,71.7886971 C265.044377,71.5855316 266.466861,71.2249844 267.311251,71 L267.311251,78.526424" id="Fill-20" fill="#FFFFFE"></path>
                <path d="M74.8211697,52.5598882 L74.8211697,59.9380478 C74.8211697,62.2060206 75.2512297,62.98425 77.6653683,62.9507176 C80.4436927,62.9507176 82.791957,61.5290868 82.791957,57.9411279 C82.791957,54.2522228 80.1460638,52.5598882 76.739374,52.5598882 L74.8211697,52.5598882 Z M74.8211697,51.5783691 L76.904913,51.5783691 C80.0798482,51.5783691 81.6673158,50.0550934 81.6673158,47.2799441 C81.6673158,45.2491426 80.8403036,42.9811698 76.9380208,42.9811698 C75.8464874,42.9811698 75.3833196,43.0828147 75.1187986,43.1841103 C74.9204931,43.2522228 74.8211697,43.3874 74.8211697,44.0643338 L74.8211697,51.5783691 Z M78.0623206,42 C80.4436927,42 81.7994057,42.4058809 82.890939,43.1841103 C84.0152388,43.9969199 84.6108378,45.215261 84.6108378,46.9075956 C84.6108378,49.8860345 81.8656213,51.3415471 80.2781537,51.7474279 L80.2781537,51.8151912 C83.2882326,52.2549536 86,54.083164 86,57.5013654 C86,59.9045154 84.8422511,61.5965007 82.9240468,62.7138956 C81.2375971,63.6615331 79.1207461,64 76.6069428,64 L69,64 L69,63.2217706 C71.7783243,63.0184809 72.0428454,62.7816588 72.0428454,59.0920551 L72.0428454,46.9075956 C72.0100789,43.2183412 71.8114321,42.9811698 69.1986468,42.7782294 L69.1986468,42 L78.0623206,42 Z" id="Fill-21" fill="#FFFFFE"></path>
                <path d="M97.8860683,53.1836319 L99.8257718,53.1836319 C101.19737,53.1836319 102.267313,53.0165372 103.170552,52.282354 C104.609108,51.1471436 105.110601,49.511338 105.110601,47.8751879 C105.110601,44.3699887 102.568623,42.9677712 100.060124,42.9677712 C98.9228778,42.9677712 98.4548639,43.0349536 98.1873781,43.1348659 C97.9865049,43.2017038 97.8860683,43.368454 97.8860683,44.0361438 L97.8860683,53.1836319 Z M97.8860683,58.8586507 C97.8860683,62.4978702 98.1538993,62.7314583 100.89606,62.9319719 L100.89606,63.699574 L92,63.699574 L92,62.9319719 C94.8091187,62.7314583 95.0769496,62.4978702 95.0769496,58.8586507 L95.0769496,46.8405788 C95.0769496,43.2017038 94.8091187,42.9677712 92.1339155,42.7676021 L92.1339155,42 L100.62892,42 C102.769496,42 104.675721,42.3000814 105.912713,43.1348659 C107.250833,43.9696505 108.119903,45.4717803 108.119903,47.4080118 C108.119903,50.1790278 106.414206,52.1486783 103.705524,53.2501253 C104.307108,54.25166 105.678706,56.5554999 106.682382,58.0242107 C107.885896,59.7933475 108.588262,60.6946254 109.491501,61.6965046 C110.193177,62.5309446 110.795106,63.0649587 112,63.3657291 L111.932352,64 L111.464683,64 C107.618065,63.8993986 106.44803,62.7314583 105.177214,60.8954836 C104.139714,59.3930093 102.735672,56.9224192 101.799299,55.3534515 C101.263983,54.4855926 100.728666,54.1514032 99.6922015,54.1514032 L97.8860683,54.1514032 L97.8860683,58.8586507 Z" id="Fill-22" fill="#FFFFFE"></path>
                <path d="M126.515957,42.1159491 C122.576091,42.1159491 119.238435,45.3971256 119.238435,51.7556267 C119.238435,58.2834226 122.609853,62.8840509 127.484043,62.8840509 C131.489712,62.8840509 134.76122,59.7383102 134.76122,53.4471779 C134.76122,46.1409752 131.289204,42.1159491 126.515957,42.1159491 Z M138,52.1957931 C138,59.2307751 133.159228,64 126.782956,64 C120.473175,64 116,59.1295473 116,52.7368381 C116,47.0541197 119.939178,41 127.383789,41 C133.159228,41 138,45.5325614 138,52.1957931 Z" id="Fill-23" fill="#FFFFFE"></path>
                <path d="M149.305314,42.7711283 L148.253725,42.9054182 C146.728466,43.1065068 146.525565,43.4083129 146.999934,44.8841168 L151.576411,59.170757 L151.643928,59.170757 L157.067692,42.3353785 L157.881397,42.3353785 L164.017065,59.1375307 L164.084932,59.1375307 C165.474457,54.9115537 167.440152,47.8350324 168.017021,45.420584 C168.491741,43.4751117 168.322423,43.0729344 166.796814,42.9054182 L165.813442,42.7711283 L165.813442,42 L173,42 L173,42.7711283 C170.763187,43.039708 170.525303,43.1733056 169.406896,46.2256309 C169.101494,47.0642502 166.627147,54.77761 163.78023,64 L162.864375,64 L156.762291,47.6003713 L156.694773,47.6675162 L151.169908,64 L150.22012,64 L144.356269,45.9909697 C143.440764,43.2072242 142.932461,42.972217 141,42.7711283 L141,42 L149.305314,42 L149.305314,42.7711283" id="Fill-24" fill="#FFFFFE"></path>
                <g id="Group-28" transform="translate(0.000000, 41.000000)">
                    <mask id="mask-2" fill="white">
                        <use xlink:href="#path-1"></use>
                    </mask>
                    <g id="Clip-26"></g>
                    <path d="M197.60099,22.4312381 L196.728836,22.4312381 L182.179688,4.49734524 L182.112919,4.49734524 L182.112919,13.1749107 C182.112919,16.7482738 182.24715,18.5860536 182.381726,19.6410298 C182.549169,20.8315655 183.453842,21.3084821 185.666225,21.4106786 L185.666225,22.193131 L177.62069,22.193131 L177.62069,21.4106786 C179.464632,21.3418452 180.336439,20.8315655 180.503881,19.6410298 C180.638458,18.5860536 180.772343,16.7482738 180.772343,13.1749107 L180.772343,5.79042857 C180.772343,3.34052381 180.738439,2.79582738 180.135785,2.013375 C179.497843,1.19650595 178.59317,0.95839881 177.184787,0.856202381 L177.184787,0.07375 L182.079015,0.07375 L196.192952,17.2248393 L196.259721,17.2248393 L196.259721,9.09161905 C196.259721,5.51860714 196.125145,3.68047619 195.991606,2.6255 C195.823818,1.4346131 194.918453,0.95839881 192.706415,0.856202381 L192.706415,0.07375 L200.751604,0.07375 L200.751604,0.856202381 C198.907663,0.924333333 198.036201,1.4346131 197.868413,2.6255 C197.734874,3.68047619 197.60099,5.51860714 197.60099,9.09161905 L197.60099,22.4312381" id="Fill-25" fill="#FFFFFE" mask="url(#mask-2)"></path>
                    <path d="M42.9233597,44.0111905 L42.8929157,43.9922262 C42.8929157,43.9922262 42.1155542,43.43875 40.3055164,43.964131 C40.2470499,43.9813393 40.1927349,43.9946845 40.1377281,44.0090833 C39.1168141,44.272125 38.615525,44.0926667 38.4594991,44.0118929 L38.4038003,43.9781786 L38.4038003,34.5023571 L38.4359742,34.507625 C39.2344389,34.6488036 40.5663666,34.085494 41.962642,34.041244 C42.7105972,34.0163095 42.9233597,34.4514345 42.9233597,34.4514345 L42.9233597,44.0111905 Z M44.3400465,34.4514345 C44.3400465,34.4514345 44.552809,34.0163095 45.3018021,34.041244 C46.2604441,34.0717976 47.1993666,34.3404583 47.9559707,34.4626726 C48.3008881,34.5185119 48.6115559,34.546256 48.8627194,34.502006 L48.8627194,43.9785298 C48.8627194,43.9785298 48.7316024,44.078619 48.4216265,44.1249762 C48.2344647,44.1530714 47.9822633,44.1615 47.6529139,44.1161964 C47.451222,44.0884524 47.2201239,44.0403393 46.9582358,43.9644821 C45.147852,43.4391012 44.3400465,44.0111905 44.3400465,44.0111905 L44.3400465,34.4514345 Z M12.0343993,14.3250595 L12.0343993,4.70033333 C12.0343993,4.70033333 12.2450861,4.26275 12.9854303,4.28663095 C14.3657917,4.32842262 15.7776351,4.82886905 16.5695267,4.68593452 L16.5695267,14.2256726 C16.5695267,14.2256726 15.987284,14.5884524 14.6048468,14.1817738 C12.8145284,13.6553393 12.0343993,14.3250595 12.0343993,14.3250595 Z M10.6318967,14.2618452 C10.6318967,14.2618452 9.82063167,13.6872976 7.99883133,14.209869 C6.59113941,14.6144405 6.08223924,14.2235655 6.08223924,14.2235655 L6.08223924,4.74423214 C6.88831497,4.8861131 8.26141136,4.32807143 9.6642599,4.28663095 C10.4194802,4.26310119 10.6318967,4.69752381 10.6318967,4.69752381 L10.6318967,14.2618452 Z M44.1414682,14.2621964 L44.1414682,4.70981548 C44.1414682,4.70981548 44.3559604,4.27574405 45.1042616,4.29927381 C46.4967315,4.34106548 47.8597952,4.89805357 48.6599897,4.75652381 L48.6599897,14.2239167 C48.6599897,14.2239167 48.1538571,14.6140893 46.7568898,14.2102202 C44.9458141,13.688 44.1414682,14.2621964 44.1414682,14.2621964 Z M42.7237435,14.2621964 C42.7237435,14.2621964 41.9166299,13.688 40.1124733,14.2102202 C38.7134303,14.6140893 38.2076437,14.2239167 38.2076437,14.2239167 L38.2076437,4.75652381 C39.0085301,4.89805357 40.3729776,4.34106548 41.7654475,4.29927381 C42.5154785,4.27574405 42.7237435,4.70981548 42.7237435,4.70981548 L42.7237435,14.2621964 Z M54.1523752,29.7693631 L32.1620757,29.7693631 L32.1620757,57.0094524 L27.3951583,58.2765476 L22.605062,56.9950536 L22.605062,29.7693631 L0.618222031,29.7693631 L0.618222031,20.8993452 L22.605062,20.8993452 L22.605062,0.692547619 L32.19079,0.692547619 L32.19079,20.8993452 L54.1523752,20.8993452 L54.1523752,29.7693631 Z M50.6973201,46.2331726 L44.9603442,46.2331726 L44.9603442,47.0521488 L42.3034079,47.0521488 L42.3034079,46.2331726 L35.8852461,46.2328214 L35.886284,35.2265119 L37.2573046,35.2265119 L37.2573046,33.2236726 C38.6466609,33.5650298 40.9168193,32.7896012 41.9304682,32.7896012 C43.0610499,32.7917083 43.6353356,33.288994 43.6353356,33.288994 C43.6353356,33.288994 44.2165404,32.7896012 45.3357057,32.7896012 C46.3497005,32.7896012 48.6174372,33.5601131 50.0085232,33.2236726 L50.0085232,35.2265119 L51.3771222,35.2265119 L51.3771222,45.1012857 L50.6973201,46.2331726 Z M19.0735508,46.2447619 L12.663346,46.2447619 L12.663346,47.0963988 L10.0091773,47.0626845 L10.0091773,46.2447619 L4.09611015,46.2440595 L3.59758864,45.431756 L3.59862651,35.2493393 L4.96826334,35.2493393 L4.96826334,33.248256 C6.35588985,33.5896131 8.62397246,32.8145357 9.63658348,32.8145357 C10.7657814,32.816994 11.3397212,33.3135774 11.3397212,33.3135774 C11.3397212,33.3135774 11.9202341,32.8145357 13.0383614,32.8145357 C14.0513184,32.8145357 16.3169793,33.5846964 17.7063356,33.248256 L17.7063356,35.2827024 L19.0735508,35.2493393 L19.0735508,46.2447619 Z M3.56057143,5.428 L4.91394836,5.428 L4.91394836,3.4476369 C6.28946644,3.78513095 8.64922719,3.04763095 9.6511136,3.05008929 C10.7695869,3.05289881 11.3372995,3.54210714 11.3372995,3.54210714 C11.3372995,3.54210714 11.9126231,3.05008929 13.018988,3.05008929 C14.0215663,3.05008929 16.2643941,3.81041667 17.6406041,3.47994643 L17.6406041,5.46030952 L19.0911945,5.46030952 L19.0911945,16.488744 L12.6501997,16.488744 L12.6501997,17.2975357 L10.0205938,17.2975357 L10.0205938,16.488744 L3.56057143,16.4564345 L3.56057143,5.428 Z M35.8714079,5.48524405 L37.2355095,5.48524405 L37.2355095,3.4845119 C38.6262496,3.82516667 40.8943322,3.04763095 41.9069432,3.05008929 C43.037179,3.05289881 43.6083511,3.54702381 43.6083511,3.54702381 C43.6083511,3.54702381 44.1912857,3.05008929 45.309759,3.05008929 C46.322716,3.05008929 48.5887229,3.81849405 49.9808468,3.4845119 L49.9808468,5.48524405 L51.3466781,5.48524405 L51.3466781,16.4803155 L44.9378571,16.4803155 L44.9378571,17.2975357 L42.2802289,17.2975357 L42.2802289,16.4803155 L35.8714079,16.4803155 L35.8714079,5.48524405 Z M0,0.0674285714 L0,29.21975 C0,38.8546607 2.37152324,45.527631 7.44253528,50.2153214 C12.4786059,54.8689464 20.0211222,57.231756 27.3951583,59 C34.9698485,57.1836429 42.2594716,54.9174107 47.3453597,50.2153214 C52.4184475,45.527631 54.7750947,38.8546607 54.7750947,29.21975 L54.7750947,0.0674285714 L0,0.0674285714 Z M6.11337522,43.991875 L6.11337522,34.5255357 L6.11337522,34.55925 C6.91114802,34.7004286 8.27386575,34.109375 9.66841136,34.065125 C10.4160207,34.0401905 10.6256695,34.4693452 10.6256695,34.4693452 L10.6284372,34.4749643 L10.6284372,44.0248869 L10.4703356,43.942006 C10.4703356,43.942006 9.81924785,43.4914286 8.01336145,43.9778274 C7.95489501,43.993631 7.90058003,44.008381 7.84557315,44.0224286 C6.82569707,44.285119 6.14624096,44.0129464 6.13793804,44.0080298 L6.11337522,43.991875 Z M12.0437401,34.4749643 C12.0437401,34.4749643 12.2561566,34.0401905 13.0044578,34.065125 C13.962062,34.0953274 14.8999466,34.3639881 15.6558589,34.4862024 C16.0004303,34.5416905 16.3107522,34.5697857 16.5615697,34.5255357 L16.5615697,43.991875 C16.5615697,43.991875 16.4307986,44.0919643 16.1208227,44.1383214 C15.9340069,44.1664167 15.6824974,44.1748452 15.353148,44.1295417 C15.1514561,44.1017976 14.9210499,44.0540357 14.6591618,43.9778274 C12.8508537,43.4531488 12.0437401,44.0586012 12.0437401,44.0586012 L12.8646919,43.1739524 L12.0437401,44.0248869 L12.0437401,34.4749643 Z" id="Fill-27" fill="#FFFFFE" mask="url(#mask-2)"></path>
                </g>
                <path d="M19,14 C19.1109339,14.1796591 19.2548014,14.4111364 19.4589891,14.7455682 C19.9928586,15.6179545 20.8193164,18.9094318 21.8863621,20 C22.4555918,19.6181818 23.440477,19.1259091 24,18.9275 C23.8706926,18.71375 23.2719961,17.70125 22.6063926,16.8401136 C21.3247591,15.1577273 20.4050475,14.2594318 20.3013936,14.1138636 C19.9550718,14.1090909 19.3667753,14.1268182 19,14" id="Fill-29" fill="#FFFFFE"></path>
                <path d="M27.9497036,18 C28.1538212,16.1975382 27.6885777,13.2048522 27.4143816,12.4556104 C27.0662138,12.3414402 26.7066443,12.1833859 26.4110353,12 C26.3726589,12.2297675 26.1098645,13.4510317 26.0228225,15.2492121 C25.9761035,16.2128798 25.9955698,17.6792531 26.133224,18 C26.5756642,17.9436285 27.315938,17.9236487 27.9497036,18" id="Fill-30" fill="#FFFFFE"></path>
                <path d="M33.2865382,25.1578851 C32.7847857,24.7630202 32.127645,24.5900158 31.876064,24.7630202 L31.8852252,24.8443356 C31.936669,25.4255902 31.488122,25.9365722 30.8799585,25.9891093 C30.2707379,26.0403079 29.73375,25.607295 29.6826586,25.0280482 L29.6826586,24.982873 C29.2855553,24.8634096 28.6523747,25.0722195 28.5656955,25.0397603 C28.5146042,25.0170054 28.2461102,23.9421696 28.595998,23.806644 C29.5494687,23.4355378 32.620941,23.253833 33.5138067,24.9015576 C33.6184559,25.1013324 33.5532704,25.3666951 33.2865382,25.1578851 Z M28.5893033,28.142127 C28.3955084,28.6802142 26.3994214,28.8525493 26.0326206,28.1518313 C25.8874506,27.8740874 25.6866087,27.1566379 25.9575691,27.3052142 C26.4015355,27.5518374 28.0075663,27.3774945 28.3116481,27.3052142 C28.5794373,27.2392918 28.4046696,26.8825748 28.5706285,26.9260769 C28.7686516,26.978614 28.7686516,27.6318143 28.5893033,28.142127 Z M25.4205812,24.9785228 C25.3909834,25.5614505 24.8719656,26.0091872 24.2599262,25.9797396 C23.6500009,25.9522998 23.1827791,25.4513568 23.2130816,24.8724446 L23.2229475,24.7559929 C23.1292213,24.6177902 22.6320494,24.4641945 21.8935148,24.8921879 C21.5228381,25.1100329 21.1067077,24.9607873 21.7508113,24.4270504 C22.4354357,23.8595157 23.0844723,23.5305731 23.6574004,23.4623083 L23.6757228,23.4579581 C24.6404688,23.3940436 25.8948501,23.5827756 26.4808152,23.8106595 C26.724292,23.9056948 26.471654,25.0461183 26.415982,25.032733 C26.2165495,24.9905695 25.7828014,24.8155573 25.4181147,24.8948649 L25.4205812,24.9785228 Z M37,28.0728584 C37,22.9867973 32.8284776,19 27.5005285,19 C22.2536209,19 18,23.0620893 18,28.0728584 C18,28.312789 18.0563767,28.7799343 18.1391799,29.2708384 C20.8716874,28.6654904 24.4956512,28.7809382 26.1048532,30 C28.6474417,28.6146264 32.4888081,28.5801594 35.2184967,29.9959844 C36.3196039,29.4582319 36.7558185,29.3735702 36.9171967,29.3190253 C36.9520798,28.9633122 37,28.321824 37,28.0728584 Z" id="Fill-31" fill="#FFFFFE"></path>
                <path d="M34.5228571,14 C33.2293878,14.9304997 31.2526531,17.1843768 31,18.9885123 C31.6069388,19.1970132 33.2106122,19.8462952 33.4302041,20 C35.0212245,18.6680069 34.697551,17.1995405 35.3191837,16.0639862 C35.5885714,15.573923 35.8489796,15.187938 36,14.9677197 C35.4836735,14.7292361 34.9273469,14.3908099 34.5228571,14" id="Fill-32" fill="#FFFFFE"></path>
                <path d="M40.8016352,17 C40.5563089,17.1435197 39.9836482,17.5168923 39.7903186,17.6711114 C38.4841218,18.7174401 35.6522259,20.1231215 35,20.8931103 C35.5199661,21.3838075 36.2883992,22.263004 36.6356249,22.9997877 C36.953886,23.0149144 37.8674909,22.2238958 39.6800439,19.9556204 C40.2614288,19.2313809 40.8794556,18.8487847 42,18.186159 C41.538312,17.835661 41.1394387,17.4272386 40.8016352,17" id="Fill-33" fill="#FFFFFE"></path>
                <path d="M18,25.1598769 C17.3820814,24.6042989 16.153294,24.1247138 14.5533324,24.2415767 C11.2800909,24.4756219 9.12460181,24.2840433 7.8873546,24.1247138 C5.76958216,23.8478827 4.45372921,24.1183278 3.39554797,24.1183278 C0.17518029,24.1183278 3.48508096,24.3820677 3.86259998,24.5161727 C5.37796345,25.0608946 8.43477481,25.7505777 10.8387708,25.5912481 C12.0125695,25.5165324 13.9791228,26.1678997 14.3168102,26.2742259 C15.1811208,26.5555271 16.7444232,27.0140386 17.5889942,26.9996702 C17.6344657,26.6478042 17.8343287,25.600827 18,25.1598769" id="Fill-34" fill="#FFFFFE"></path>
                <path d="M20,20.9015774 C18.3766403,19.5592249 16.8843313,19.2728186 14.5045624,18.1264843 C13.9650647,17.8663083 13.0598766,17.2406806 13.0136439,17.2151592 C12.9493352,17.1680156 12.830451,17.0914515 12.6837577,17 C12.5443643,17.4572576 12.2600156,18.0779228 12,18.4249424 C12.3684714,18.916583 15.0287651,22.029834 18.4329539,23 C18.8055966,22.3318367 19.4069697,21.5612335 20,20.9015774" id="Fill-35" fill="#FFFFFE"></path>
                <path d="M53.6304551,23.1204509 C53.4755641,23.0908496 52.889599,22.9976454 52.5149711,23.0000455 C52.0200591,23.0032457 48.768692,23.0216465 47.8793287,23.1844538 C46.0602835,23.5260692 42.5394532,23.3496613 40.6095315,23.2616573 C39.167466,23.1948543 37.5070076,23.8680846 37,24.1936993 C37,24.1936993 37.5557261,25.8561743 37.5920129,26.9874253 C38.2051931,27.1178311 38.79519,26.1901893 40.5460295,26.2245909 C42.3694426,26.2617926 46.8575857,25.9689794 49.1282004,24.9101316 C50.8246097,24.1228961 52.2492037,23.7280783 53.4033264,23.4484657 C53.788706,23.3524614 54.4002062,23.2616573 53.6304551,23.1204509" id="Fill-36" fill="#FFFFFE"></path>
                <path d="M9,11 C7.7215873,11.332853 6.39873016,11.6786744 6,14" id="Fill-37" fill="#FFFFFE"></path>
                <path d="M6,11.789555 C5.83589222,11.6992374 5.71602218,11.6329203 5.66678985,11.6038671 C2.89978992,9.96836098 4.1751928,12.0725079 5.24546095,13 C5.24546095,13 5.30254192,12.2796699 6,11.789555" id="Fill-38" fill="#FFFFFE"></path>
                <g id="Group-42" transform="translate(14.000000, 0.000000)">
                    <mask id="mask-4" fill="white">
                        <use xlink:href="#path-3"></use>
                    </mask>
                    <g id="Clip-40"></g>
                    <path d="M2.45162791,4.6884375 C2.11325581,4.28875 1.61232558,3.7809375 0.911860465,3.229375 C0.439883721,2.851875 0.0502325581,3.048125 0.333488372,3.7915625 C0.444418605,4.079375 0.540697674,4.3340625 0.629651163,4.575 C0.629651163,4.575 1.425,4.48375 2.45162791,4.6884375" id="Fill-39" fill="#FFFFFE" mask="url(#mask-4)"></path>
                    <path d="M14.7666279,2.316875 C14.67,1.583125 14.5639535,0.9803125 14.4463953,0.6334375 C14.1446512,-0.2525 13.7846512,0.4434375 13.7281395,0.7165625 C13.6611628,1.08625 13.5680233,1.594375 13.4605814,2.1834375 C13.4605814,2.1834375 14.3563953,2.64375 14.7666279,2.316875" id="Fill-41" fill="#FFFFFE" mask="url(#mask-4)"></path>
                </g>
                <path d="M39.5002632,6.49340676 C39.57749,6.32862222 39.6483921,6.18244723 39.7076437,6.06748825 C40.2595489,5.0187502 39.9616266,4.75611546 39.3817601,5.22075384 C38.7273297,5.74692379 38.3148988,6.12211628 38,6.4246715 C38,6.4246715 38.1025252,6.80946892 38.4537073,6.94543867 C38.7702705,7.06820166 39.2808992,6.94543867 39.2808992,6.94543867 C39.2808992,6.94543867 39.3734382,6.77224982 39.5002632,6.49340676" id="Fill-43" fill="#FFFFFE"></path>
                <path d="M50.8300215,11 C51.1144974,10.610814 51.5115033,10.1586855 51.6875003,9.93670538 C51.9008572,9.64889992 52.6399544,8.33191368 50.6607763,9.43028309 C50.5585991,9.48649884 50.2421646,9.68349423 50,9.83052006 C50,9.83052006 50.7170413,10.3571224 50.8300215,11" id="Fill-44" fill="#FFFFFE"></path>
                <g id="Group-48" transform="translate(0.000000, 3.000000)" fill="#FFFFFE">
                    <path d="M11.3648101,7.85944444 C11.6673101,6.22611111 13.2302848,3.84787879 16.8014557,4.77378788 C17.2393671,4.88691919 16.9810759,6.02318182 16.510443,5.83262626 C13.9031646,4.78828283 12.5946519,6.8080303 12.1724051,8.40141414 C12.1146203,8.61777778 11.2415823,8.53611111 11.3648101,7.85944444 M10.1071203,9.85373737 C8.63743671,10.0184848 8.20683544,10.7517172 7.94506329,11.5927778 C7.8378481,11.9088384 7.0128481,11.6825758 7.14338608,11.06 C7.53325949,9.20994949 9.49794304,8.75777778 10.2112025,8.91545455 C10.4510443,8.96247475 10.3772468,9.82757576 10.1071203,9.85373737 M6.01832278,13.1575253 C5.01335443,13.1575253 4.2068038,13.1790909 3.49981013,13.9642929 C2.74373418,14.8007576 2.92753165,15.2603535 2.78689873,15.4116667 C2.58012658,15.6188384 2.0618038,15.2532828 2.07155063,14.8389394 C2.11541139,12.870101 4.44316456,12.1022222 5.82338608,12.259899 C6.34936709,12.3231818 6.48547468,13.1575253 6.01832278,13.1575253 M20.2006646,3.37838384 C21.0643038,1.98050505 24.0283861,-0.170757576 26.6551582,2.19757576 C26.9503481,2.45954545 26.5991139,3.43282828 26.2698101,3.20691919 C23.8675633,1.51914141 21.9780696,2.87424242 20.9762342,4.09464646 C20.4962025,4.67515152 19.9949367,3.7160101 20.2006646,3.37838384 M28.1265823,3.12772727 C29.0664557,1.56510101 33.9851266,0.110656566 36.5081646,4.53020202 C36.7755063,5.0110101 36.4183544,5.29136364 36.1353481,5.48969697 C35.935538,5.63535354 35.8161392,5.30338384 35.684557,5.08631313 C33.543038,1.62590909 29.6683228,2.53873737 28.6271519,4.14343434 C28.4158544,4.46868687 27.8522785,3.58732323 28.1265823,3.12772727 M38.7885759,5.63535354 C40.0936076,5.16373737 42.315538,4.95444444 42.9083544,7.18171717 C43.0782278,7.80464646 42.3298101,8.10126263 42.1634177,7.665 C41.5573734,6.05252525 40.4183861,6.11651515 39.0573101,6.55949495 C38.4300316,6.76949495 38.5818038,5.70853535 38.7885759,5.63535354 M44.8330063,8.6570202 C46.2389873,7.83717172 49.115,7.98318182 50.0096203,10.6039394 C50.1627848,11.0497475 49.5838924,11.8066667 49.2243038,11.1321212 C48.1431013,9.10247475 46.3963291,9.10742424 44.9374367,9.67590909 C44.6105696,9.80742424 44.3153797,8.95893939 44.8330063,8.6570202 M51.0243354,11.6058586 C52.47,11.2639899 54.205981,12.3433333 53.7137658,14.3277273 C53.6298734,14.6678283 52.8132278,14.6890404 52.8417722,14.3422222 C52.9663924,12.6806061 52.1622785,12.5466162 51.091519,12.5582828 C50.6863291,12.5674747 50.7173101,11.6744444 51.0243354,11.6058586 M12.419557,11.4421717 C12.5706329,11.3113636 12.7781013,11.3279798 12.9674684,11.390202 C14.5610759,11.9159091 16.847057,11.5581313 17.912943,9.83464646 C18.0622785,9.59388889 18.3578165,9.5090404 18.6150633,9.61580808 C19.7164557,10.0718687 21.9735443,10.2825758 24.7214557,7.43308081 C24.9282278,7.21848485 25.262057,7.24535354 25.4911076,7.43520202 C27.905538,9.41429293 30.4212658,9.53732323 32.9721519,7.80464646 C33.130538,7.69681818 33.3317405,7.55787879 33.5071835,7.63070707 C33.6833228,7.70388889 33.8131646,7.86156566 33.8528481,8.05141414 C34.6677532,11.9010606 38.6006013,11.5595455 39.785538,11.3643939 C39.9376582,11.3396465 40.0936076,11.3778283 40.2185759,11.470101 C40.3425,11.5634343 40.4246519,11.7037879 40.4458861,11.8607576 C40.5746835,12.7608586 41.5514557,14.5069697 43.2435759,15.3985859 C44.6902848,16.1583333 46.2650949,16.0992929 47.9286709,15.2239394 C48.0957595,15.1362626 48.2945253,15.1366162 48.4616139,15.2274747 C50.5968671,16.3927273 52.518038,16.4613131 53.731519,15.4173232 C54.5868038,14.6805556 54.934557,13.4810101 54.5941139,12.4310101 C54.2150316,11.2615152 53.0767405,10.5342929 51.4716456,10.4349495 C51.2018671,10.4179798 50.9801266,10.2118687 50.9393987,9.93929293 C50.7956329,9.0059596 50.2853165,8.24232323 49.4617089,7.73005051 C48.2064557,6.94838384 46.3604747,6.85646465 44.5221519,7.48363636 C44.360981,7.53808081 44.1831013,7.51792929 44.0382911,7.4260101 C43.8927848,7.33373737 43.7956646,7.18171717 43.7712975,7.00883838 C43.67,6.28727273 43.3647152,5.31045455 42.4794937,4.75787879 C41.5465823,4.17560606 40.1385127,4.18974747 38.4053165,4.79888889 C38.1365823,4.89328283 37.8396519,4.77272727 37.7084177,4.51570707 C36.5944937,2.33474747 35.0287342,0.917777778 33.1824051,0.418585859 C31.5296203,-0.0296969697 29.6923418,0.296262626 28.1418987,1.3130303 C27.9396519,1.44631313 27.6771835,1.43676768 27.4836392,1.28934343 C25.9237975,0.092979798 24.0572785,-0.288838384 22.3620253,0.241464646 C20.710981,0.756212121 19.4536392,2.07277778 18.8193987,3.94792929 C18.7671835,4.09959596 18.6578797,4.22439394 18.5148101,4.28979798 C18.3713924,4.3569697 18.2074367,4.36050505 18.0612342,4.30040404 C15.5315823,3.26348485 13.4669937,3.28929293 12.0892089,4.37747475 C10.9053165,5.31151515 10.5398101,6.78328283 10.5927215,7.21282828 C10.6306646,7.50944444 10.4559177,7.78378788 10.1708228,7.85484848 L9.56617089,8.0029798 C8.16436709,8.32929293 6.71382911,8.6690404 6.27696203,10.9472222 C6.22857595,11.2007071 6.0221519,11.3926768 5.76908228,11.4184848 C3.33237342,11.6670202 1.74050633,12.5886869 1.4035443,13.9490909 C1.16648734,14.9068182 1.60196203,15.9925253 2.46351266,16.5875253 C3.33028481,17.1874747 4.37424051,17.124899 5.32977848,16.4164141 C5.48642405,16.2997475 5.6918038,16.2714646 5.87281646,16.3432323 C7.30351266,16.9021717 9.625,16.7915152 11.0327215,15.6386364 C12.0526582,14.8032323 12.4526266,13.5704545 12.2218354,11.9763636 C12.192943,11.7744949 12.2663924,11.5726263 12.419557,11.4421717" id="Fill-45"></path>
                    <path d="M53.6089873,32.6542929 C53.2751582,33.4080303 50.8349684,34.3586869 47.1858228,33.3143434 C45.9813924,32.7695455 45.0463924,29.9691919 44.6948101,29.6085859 C44.5517405,29.4657576 46.767057,28.6515657 49.0787975,28.824798 C53.0046835,29.1192929 53.9974684,31.7782323 53.6089873,32.6542929 Z M29.4298734,33.4479798 C28.2289241,32.9038889 27.3050633,30.0886869 26.95,29.7287879 C26.8072785,29.5856061 29.0883861,28.7625758 31.3973418,28.9637374 C35.3308861,29.3017172 35.368481,31.7771717 36.3174051,33.0258586 C36.6613291,33.4787374 33.0581329,34.4930303 29.4298734,33.4479798 Z M11.6533861,33.265202 C10.4489557,32.7228788 9.53344937,29.9267677 9.15123418,29.5385859 C9.0203481,29.3862121 11.2168671,28.5812121 13.5279114,28.7544444 C17.4948734,29.0524747 17.5603165,31.6028788 18.5054114,32.83 C18.854557,33.2832323 15.3025316,34.3077778 11.6533861,33.265202 Z M41.3638291,34.2904545 C40.6575316,33.4380808 40.1983861,32.3120707 39.4238608,31.8135859 C39.0336392,31.6081818 38.7781329,31.1517677 39.2894937,30.8636364 C39.799462,30.7133838 40.280538,31.1821717 40.8938924,32.0380808 C41.0529747,32.2434848 41.25,32.464798 41.4233544,32.6960101 C42.3110127,33.714899 42.4318038,34.8023737 43.2707278,34.8037879 C44.3662025,34.8592929 45.3878797,34.6015657 46.1098418,34.1518687 C48.3878165,35.1916162 52.583481,34.7189394 53.6330063,33.9952525 C55.6307595,32.6171717 54.3911709,29.6923737 52.4066456,28.6384848 C48.3401266,26.6434848 44.7073418,28.2891919 43.700981,28.7572727 C42.7799051,28.1255051 41.2628797,27.8366667 39.3448418,27.8858081 C37.2377848,28.0254545 36.2495253,28.3355051 34.8644304,29.0379798 C32.3152848,27.5259091 28.8043354,27.5920202 26.2764241,29.0210101 C25.2509177,28.1916162 23.3196519,27.9010101 21.4033544,27.9618182 C19.8073101,28.0434848 18.2913291,28.2966162 17.4068038,28.8781818 C16.2994937,28.0516162 12.5591456,26.6014141 8.17655063,28.4539394 C7.25164557,28.1322222 5.28800633,27.0260101 2.61424051,27.9289394 C-0.634588608,29.0256061 -0.175443038,32.0398485 0.889398734,33.4603535 C2.33401899,35.414697 5.06661392,35.0866162 5.9410443,34.0861111 C5.71825949,33.5466162 5.31341772,33.1407576 4.8939557,32.5945455 C4.5371519,32.13 4.17582278,31.7488889 3.95791139,31.6643939 C3.21506329,31.6605051 3.48031646,30.864697 3.74174051,30.7961111 C4.56639241,30.4722727 5.61591772,31.9479293 6.61949367,33.1743434 C7.13781646,33.8078788 7.40829114,34.8380808 8.11458861,34.8331313 C9.6535443,34.8062626 10.3062342,34.3519697 10.8492722,34.049697 C11.7369304,34.5736364 15.9715823,35.4115152 19.2064873,34.0861111 C19.6489241,34.4205556 21.4252848,35.3616667 23.7056962,34.1953535 C22.8197785,33.2489394 22.3773418,32.2682323 21.5401582,31.6223232 C20.9807595,31.3543434 21.0858861,30.8084848 21.3678481,30.7091414 C21.9631013,30.5256566 22.5646203,31.1743939 23.0954747,31.8980808 C23.4084177,32.3244444 23.7547785,32.8013636 24.0844304,33.1566667 C24.6988291,33.8814141 25.224462,34.7786869 25.8252848,34.7914141 C27.0965506,34.8193434 27.7861392,34.4774747 28.3159494,34.049697 C28.6814557,34.3169697 29.1392089,34.5343939 29.9732595,34.6825253 C30.5723418,34.7885859 31.3127532,34.8688384 32.4653165,34.8709596 C33.9666772,34.8508081 35.0837342,34.7373232 35.7942089,34.5149495 C36.2488291,34.3784848 36.6118987,34.1320707 36.7901266,33.9772222 C36.8381646,33.9701515 38.9480063,35.3358586 41.3638291,34.2904545 Z" id="Fill-47"></path>
                </g>
            </g>
        </g>
    </g>
</svg>
