<?xml version="1.0" standalone="no"?>
<!DOCTYPE svg PUBLIC "-//W3C//DTD SVG 20010904//EN"
 "http://www.w3.org/TR/2001/REC-SVG-20010904/DTD/svg10.dtd">
<svg version="1.0" xmlns="http://www.w3.org/2000/svg"
 width="316.000000pt" height="316.000000pt" viewBox="0 0 316.000000 316.000000"
 preserveAspectRatio="xMidYMid meet">
<metadata>
Created by potrace 1.14, written by Peter Selinger 2001-2017
</metadata>
<g transform="translate(0.000000,316.000000) scale(0.100000,-0.100000)"
fill="#000000" stroke="none">
<path d="M827 2337 c-49 -53 -135 -177 -129 -185 2 -3 0 -8 -5 -11 -5 -3 -20
-31 -33 -61 -21 -50 -27 -70 -47 -150 -3 -14 -6 -40 -7 -57 -1 -18 -4 -33 -7
-33 -3 0 -5 -18 -4 -40 1 -22 -2 -40 -7 -40 -5 0 -6 -5 -2 -12 4 -6 8 -34 10
-62 2 -45 5 -66 17 -138 2 -10 6 -20 9 -24 4 -3 4 -12 1 -20 -3 -8 0 -14 7
-14 6 0 9 -4 5 -10 -3 -5 -2 -17 3 -27 5 -10 24 -49 41 -88 46 -99 75 -141
173 -247 l26 -28 26 23 c29 27 35 67 11 67 -8 0 -15 7 -15 15 0 8 -8 15 -17
15 -9 0 -14 3 -11 6 4 3 -1 14 -10 23 -48 51 -127 190 -135 237 -2 11 -9 29
-15 42 -7 12 -10 22 -8 22 3 0 1 12 -5 28 -12 30 -22 292 -11 292 4 0 7 10 8
23 2 37 14 90 25 103 5 7 9 16 7 20 -1 5 3 19 10 32 7 12 10 22 7 22 -4 0 1 7
9 16 9 8 16 21 16 28 0 19 91 145 134 187 l38 36 -31 32 c-17 17 -32 31 -33
31 -2 0 -25 -24 -51 -53z"/>
<path d="M2262 2362 l-32 -29 50 -54 c27 -30 52 -62 55 -71 4 -10 10 -18 14
-18 4 0 20 -26 36 -57 17 -32 34 -61 40 -65 5 -4 6 -8 1 -8 -4 0 -1 -11 8 -25
9 -14 14 -25 11 -25 -3 0 1 -15 9 -34 8 -19 12 -37 8 -40 -3 -3 -1 -6 4 -6 5
0 9 -16 9 -35 -1 -19 1 -35 5 -35 12 0 10 -213 -2 -227 -7 -9 -7 -13 1 -13 8
0 9 -6 3 -17 -5 -10 -17 -51 -27 -90 -11 -40 -22 -73 -27 -73 -4 0 -7 -3 -6
-7 5 -26 -70 -146 -140 -223 l-49 -54 20 -28 c12 -15 28 -28 36 -28 15 0 120
108 121 124 0 6 8 19 19 30 26 29 81 133 74 140 -4 3 -1 6 5 6 7 0 11 3 10 8
-1 4 6 32 17 62 10 30 20 62 21 70 12 64 18 113 18 160 1 30 6 58 11 62 7 5 6
8 0 8 -6 0 -11 9 -12 20 -1 13 2 18 10 13 9 -5 9 -3 1 8 -6 8 -11 23 -12 34
-1 20 -6 50 -16 93 -11 43 -15 57 -25 89 -5 17 -6 35 -3 39 4 4 1 4 -5 0 -7
-4 -14 -2 -14 3 -3 20 -5 26 -24 66 -28 60 -89 147 -134 193 -23 23 -41 46
-41 52 0 17 -15 11 -48 -18z"/>
<path d="M1020 2159 c-19 -23 -41 -47 -48 -55 -7 -8 -10 -14 -5 -14 4 0 3 -4
-3 -8 -22 -14 -77 -129 -90 -187 -20 -90 -21 -295 -1 -295 5 0 6 -4 3 -8 -3
-5 1 -21 9 -35 8 -15 14 -31 14 -35 0 -16 36 -92 43 -92 4 0 8 -6 8 -13 0 -8
9 -22 20 -32 11 -10 20 -22 20 -26 0 -8 32 -42 62 -67 14 -11 20 -9 43 12 26
24 27 27 12 48 -8 13 -24 33 -36 45 -12 12 -21 27 -21 32 0 6 -6 14 -13 18
-13 9 -57 93 -62 121 -2 9 -4 18 -5 20 -2 1 -4 7 -5 12 -1 6 -3 11 -4 13 -14
16 -19 168 -8 229 9 47 37 121 51 130 6 4 8 8 3 8 -11 0 39 76 78 117 19 21
35 41 35 45 0 9 -49 58 -58 58 -4 -1 -23 -19 -42 -41z"/>
<path d="M2076 2176 c-15 -13 -26 -27 -26 -31 0 -4 20 -30 45 -58 25 -29 45
-57 45 -64 0 -7 4 -13 8 -13 18 0 76 -164 68 -187 -3 -7 -2 -13 3 -13 8 0 7
-145 -2 -170 -6 -16 -17 -65 -18 -77 0 -5 -7 -15 -14 -23 -7 -8 -14 -18 -14
-23 -2 -24 -39 -79 -98 -145 -28 -30 -28 -33 -5 -59 37 -43 53 -33 133 74 22
29 39 59 39 68 0 8 4 15 9 15 5 0 14 14 20 30 5 17 7 30 4 30 -3 0 -1 6 5 13
9 11 15 32 27 95 2 13 7 33 11 44 5 16 3 19 -7 12 -11 -6 -12 -5 -3 7 7 8 10
37 7 69 -2 30 -5 69 -6 85 -1 17 -8 34 -15 38 -7 5 -10 13 -6 18 3 6 -2 27
-11 47 -29 64 -66 134 -78 149 -23 27 -88 93 -92 93 -2 0 -15 -11 -29 -24z"/>
<path d="M1190 1943 c-39 -51 -48 -70 -65 -128 -16 -58 -6 -174 17 -202 6 -7
7 -13 3 -13 -5 0 2 -8 13 -19 12 -10 22 -22 22 -27 0 -12 48 -64 59 -64 4 0
19 13 34 28 l27 28 -25 24 c-14 13 -25 29 -25 37 0 7 -4 13 -9 13 -16 0 -34
60 -34 113 1 83 12 113 68 173 l25 27 -27 29 c-15 15 -32 28 -37 28 -6 0 -27
-21 -46 -47z"/>
<path d="M1897 1963 l-26 -28 35 -40 c38 -44 70 -127 59 -153 -4 -9 -7 -32 -6
-49 2 -18 -2 -33 -8 -33 -6 0 -10 -3 -9 -7 3 -12 -22 -54 -49 -81 l-25 -25 33
-31 34 -31 38 45 c57 68 58 70 52 70 -3 0 -1 9 5 21 32 58 30 170 -3 242 -23
50 -81 127 -96 127 -4 0 -19 -12 -34 -27z"/>
<path d="M1545 1912 c-30 -7 -120 -72 -100 -72 3 0 -2 -12 -12 -27 -35 -53
-21 -139 31 -196 17 -19 41 -37 54 -41 12 -4 22 -14 23 -22 5 -81 2 -154 -6
-154 -5 0 -4 -4 3 -9 17 -11 17 -21 0 -32 -7 -5 -8 -9 -3 -9 6 0 10 -38 10
-95 0 -57 -4 -95 -10 -95 -5 0 -4 -4 3 -9 17 -11 17 -21 0 -32 -7 -5 -8 -9 -3
-9 12 0 13 -269 1 -288 -4 -7 -2 -12 4 -12 6 0 9 -4 5 -9 -12 -20 40 -32 75
-17 13 5 15 58 14 396 -1 382 0 397 30 398 14 0 86 83 80 93 -3 5 0 9 7 9 7 0
9 10 7 25 -3 14 -1 28 3 31 5 3 4 14 -1 25 -6 10 -8 19 -5 19 3 0 -1 13 -9 29
-9 16 -14 30 -12 32 2 2 -15 18 -38 36 -42 32 -103 46 -151 35z"/>
</g>
</svg>
